<?xml version="1.0" encoding="utf-8"?>
<svg width="519px" height="253px" viewBox="0 0 519 253" version="1.1" xmlns:xlink="http://www.w3.org/1999/xlink" xmlns="http://www.w3.org/2000/svg">
  <defs>
    <linearGradient x1="-0.06333333" y1="0.96726614" x2="1" y2="0" id="gradient_1">
      <stop offset="0" stop-color="#FFFFFF" stop-opacity="0" />
      <stop offset="1" stop-color="#000000" stop-opacity="0.039215688" />
    </linearGradient>
    <linearGradient x1="1" y1="0" x2="0" y2="1" id="gradient_2">
      <stop offset="0" stop-color="#FFFFFF" stop-opacity="0.050980393" />
      <stop offset="1" stop-color="#FFFFFF" stop-opacity="0" />
    </linearGradient>
    <linearGradient x1="-0.3518272" y1="1.3710526" x2="1" y2="0" id="gradient_3">
      <stop offset="0" stop-color="#000000" stop-opacity="0.019607844" />
      <stop offset="1" stop-color="#FFFFFF" stop-opacity="0.019607844" />
    </linearGradient>
    <linearGradient x1="0.41921654" y1="0.5631579" x2="1" y2="0" id="gradient_4">
      <stop offset="0" stop-color="#FFFFFF" stop-opacity="0" />
      <stop offset="1" stop-color="#FFFFFF" stop-opacity="0.101960786" />
    </linearGradient>
    <linearGradient x1="1.3998891E-07" y1="1.0000002" x2="1.0688074" y2="-0.25477707" id="gradient_5">
      <stop offset="0" stop-color="#FFFFFF" stop-opacity="0.101960786" />
      <stop offset="1" stop-color="#FFFFFF" stop-opacity="0" />
    </linearGradient>
    <linearGradient x1="0.055707045" y1="1" x2="0.70547944" y2="0" id="gradient_6">
      <stop offset="0" stop-color="#000000" stop-opacity="0.050980393" />
      <stop offset="1" stop-color="#FFFFFF" stop-opacity="0" />
    </linearGradient>
    <linearGradient x1="0.112688914" y1="1" x2="0.8516129" y2="0.1865285" id="gradient_7">
      <stop offset="0" stop-color="#000000" stop-opacity="0.050980393" />
      <stop offset="1" stop-color="#FFFFFF" stop-opacity="0.019607844" />
    </linearGradient>
    <linearGradient x1="0.24035087" y1="0.75876033" x2="1" y2="0" id="gradient_8">
      <stop offset="0" stop-color="#FFFFFF" stop-opacity="0.019607844" />
      <stop offset="1" stop-color="#000000" stop-opacity="0.019607844" />
    </linearGradient>
  </defs>
  <g id="glass">
    <path d="M300 0L0 0L0 252L106.5 252L300 0L300 0Z" transform="translate(1 0.5)" id="New-shape" fill="url(#gradient_1)" fill-rule="evenodd" stroke="none" />
    <path d="M74 189L212.268 0L188.789 0L0 251L316.5 251L316.5 0L221.774 0L84.5 189L74 189L74 189ZM146.5 251L279.5 65.5L289 65.5L157 251L146.5 251L146.5 251Z" transform="translate(202 1)" id="New-shape-2-Difference-Difference" fill="#000000" fill-opacity="0.02745098" fill-rule="evenodd" stroke="none" />
    <path d="M0 251C0 251 95.5 251 95.5 251L284.5 0L194.5 0C194.5 0 0 251 0 251L0 251Z" transform="translate(107 1)" id="New-shape-3" fill="url(#gradient_2)" fill-rule="evenodd" stroke="none" />
    <path d="M139 0L0 190L10.5 190L148.5 0L139 0L139 0Z" transform="translate(275 1)" id="New-shape-4-Copy" fill="url(#gradient_3)" fill-rule="evenodd" stroke="none" />
    <path d="M139 0L0 190L10.5 190L148.5 0L139 0L139 0Z" transform="translate(1 0)" id="New-shape-4-Copy-5" fill="url(#gradient_4)" fill-rule="evenodd" stroke="none" />
    <path d="M44.5 0L0 65.5L0 78.5L54.5 0L44.5 0L44.5 0Z" transform="translate(0 0.5)" id="New-shape-4-Copy-8" fill="url(#gradient_5)" fill-rule="evenodd" stroke="none" />
    <path d="M139 0L0 190L8 190L146 0L139 0L139 0Z" transform="translate(1 62.5)" id="New-shape-4-Copy-6" fill="url(#gradient_6)" fill-rule="evenodd" stroke="none" />
    <path d="M71 0L0 96.5L6 96.5L77.5 0L71 0L71 0Z" transform="translate(20 155.5)" id="New-shape-4-Copy-7" fill="url(#gradient_7)" fill-rule="evenodd" stroke="none" />
    <path d="M133 0L0 185.5L10.5 185.5L142.5 0L133 0L133 0Z" transform="translate(349 66.5)" id="New-shape-4-Copy-4" fill="url(#gradient_8)" fill-rule="evenodd" stroke="none" />
  </g>
</svg>