<?xml version="1.0" encoding="utf-8"?>
<svg width="316px" height="587px" viewBox="0 0 316 587" version="1.1" xmlns:xlink="http://www.w3.org/1999/xlink" xmlns="http://www.w3.org/2000/svg">
  <defs>
    <linearGradient x1="-0.06333333" y1="0.96726614" x2="1" y2="0" id="gradient_1">
      <stop offset="0" stop-color="#FFFFFF" stop-opacity="0" />
      <stop offset="1" stop-color="#000000" stop-opacity="0.039215688" />
    </linearGradient>
    <linearGradient x1="1" y1="0" x2="0" y2="1" id="gradient_2">
      <stop offset="0" stop-color="#FFFFFF" stop-opacity="0.050980393" />
      <stop offset="1" stop-color="#FFFFFF" stop-opacity="0" />
    </linearGradient>
    <linearGradient x1="-0.3518272" y1="1.3710526" x2="1" y2="0" id="gradient_3">
      <stop offset="0" stop-color="#000000" stop-opacity="0.019607844" />
      <stop offset="1" stop-color="#FFFFFF" stop-opacity="0.019607844" />
    </linearGradient>
    <linearGradient x1="0.41921654" y1="0.5631579" x2="1" y2="0" id="gradient_4">
      <stop offset="0" stop-color="#FFFFFF" stop-opacity="0" />
      <stop offset="1" stop-color="#FFFFFF" stop-opacity="0.101960786" />
    </linearGradient>
    <linearGradient x1="1.3998891E-07" y1="1.0000002" x2="1.0688074" y2="-0.25477707" id="gradient_5">
      <stop offset="0" stop-color="#FFFFFF" stop-opacity="0.101960786" />
      <stop offset="1" stop-color="#FFFFFF" stop-opacity="0" />
    </linearGradient>
    <linearGradient x1="0.055707045" y1="1" x2="0.70547944" y2="0" id="gradient_6">
      <stop offset="0" stop-color="#000000" stop-opacity="0.050980393" />
      <stop offset="1" stop-color="#FFFFFF" stop-opacity="0" />
    </linearGradient>
    <linearGradient x1="0.112688914" y1="1" x2="0.8516129" y2="0.1865285" id="gradient_7">
      <stop offset="0" stop-color="#000000" stop-opacity="0.050980393" />
      <stop offset="1" stop-color="#FFFFFF" stop-opacity="0.019607844" />
    </linearGradient>
    <linearGradient x1="0.24035087" y1="0.75876033" x2="1" y2="0" id="gradient_8">
      <stop offset="0" stop-color="#FFFFFF" stop-opacity="0.019607844" />
      <stop offset="1" stop-color="#000000" stop-opacity="0.019607844" />
    </linearGradient>
  </defs>
  <g id="phone-interface">
    <path d="M182.835 0L0 0L0 585.838L64.9065 585.838L182.835 0L182.835 0Z" transform="translate(0.60943604 1.1624146)" id="New-shape" fill="url(#gradient_1)" fill-rule="evenodd" stroke="none" />
    <path d="M45.0993 439.378L129.367 0L115.058 0L0 583.513L192.891 583.513L192.891 0L135.16 0L51.4986 439.378L45.0993 439.378L45.0993 439.378ZM89.2845 583.513L170.341 152.271L176.131 152.271L95.6837 583.513L89.2845 583.513L89.2845 583.513Z" transform="translate(123.10895 2.324768)" id="New-shape-2-Difference-Difference" fill="#000000" fill-opacity="0.02745098" fill-rule="evenodd" stroke="none" />
    <path d="M0 583.513C0 583.513 58.2025 583.513 58.2025 583.513L173.389 0L118.538 0C118.538 0 0 583.513 0 583.513L0 583.513Z" transform="translate(65.21118 2.324768)" id="New-shape-3" fill="url(#gradient_2)" fill-rule="evenodd" stroke="none" />
    <path d="M84.7136 0L0 441.703L6.39923 441.703L90.5034 0L84.7136 0L84.7136 0Z" transform="translate(167.59885 2.324768)" id="New-shape-4-Copy" fill="url(#gradient_3)" fill-rule="evenodd" stroke="none" />
    <path d="M84.7136 0L0 441.703L6.39923 441.703L90.5034 0L84.7136 0L84.7136 0Z" transform="translate(0.60943604 0)" id="New-shape-4-Copy-5" fill="url(#gradient_4)" fill-rule="evenodd" stroke="none" />
    <path d="M27.1205 0L0 152.271L0 182.493L33.215 0L27.1205 0L27.1205 0Z" transform="translate(0 1.1624146)" id="New-shape-4-Copy-8" fill="url(#gradient_5)" fill-rule="evenodd" stroke="none" />
    <path d="M84.7136 0L0 441.703L4.8756 441.703L88.9798 0L84.7136 0L84.7136 0Z" transform="translate(0.60943604 145.297)" id="New-shape-4-Copy-6" fill="url(#gradient_6)" fill-rule="evenodd" stroke="none" />
    <path d="M43.271 0L0 224.339L3.6567 224.339L47.2324 0L43.271 0L43.271 0Z" transform="translate(12.188965 361.49896)" id="New-shape-4-Copy-7" fill="url(#gradient_7)" fill-rule="evenodd" stroke="none" />
    <path d="M81.0569 0L0 431.242L6.39923 431.242L86.8467 0L81.0569 0L81.0569 0Z" transform="translate(212.69815 154.59607)" id="New-shape-4-Copy-4" fill="url(#gradient_8)" fill-rule="evenodd" stroke="none" />
  </g>
</svg>