<?xml version="1.0" encoding="utf-8"?>
<svg width="494px" height="240px" viewBox="0 0 494 240" version="1.1" xmlns:xlink="http://www.w3.org/1999/xlink" xmlns="http://www.w3.org/2000/svg">
  <g id="star" transform="translate(240.5731 0)">
    <path d="M156.647 92.1573L253.407 92.1573L175.083 147.441L208.104 239.599L126.703 184.315L49.1557 239.599L69.5724 175L79.8216 175L66.4287 213.87L122.796 175L126.427 175L126.427 172.496L126.988 172.11L187.754 213.87L164.714 144.752L224.42 101.363L152.044 101.363L126.703 32.2447L105.529 90L97.4675 90L126.988 0L156.647 92.1573ZM0.0269012 92.1573L0 92.1573L0.0269012 92.1762L0.0269012 92.1573Z" id="Group-Difference" fill="#FFFFFF" fill-rule="evenodd" stroke="none" />
  </g>
  <g id="Testar" fill="#FFFFFF" transform="translate(0 55)">
    <path d="M24.6094 111.92L42.3047 111.92L57.2461 40.377L82.0898 40.377L85.0781 26.0215L17.4023 26.0215L14.4141 40.377L39.6094 40.377L24.6094 111.92ZM218.379 49.6934L215.801 62.1738L223.945 62.1738L218.73 87.1934Q216.563 97.5645 216.563 100.436Q216.563 106.529 220.605 109.957Q224.648 113.385 233.555 113.385Q238.125 113.385 242.461 112.506L245.098 100.025Q240.645 100.436 239.531 100.436Q236.309 100.436 235.078 99.3516Q233.848 98.2676 233.848 96.334Q233.848 95.3379 235.313 88.248L240.762 62.1738L251.074 62.1738L253.652 49.6934L243.398 49.6934L247.91 28.1309L228.633 39.7324L226.582 49.6934L218.379 49.6934ZM96.5039 86.0215L138.691 86.0215Q139.863 81.1582 139.863 75.0645Q139.863 62.3496 133.125 55.2891Q126.387 48.2285 114.961 48.2285Q97.0313 48.2285 87.3633 61.7051Q80.2734 71.666 80.2734 84.4395Q80.2734 97.5059 88.125 105.445Q95.9766 113.385 108.516 113.385Q117.656 113.385 125.01 108.844Q132.363 104.303 136.758 95.2207L121.699 92.7012Q117.012 101.373 108.633 101.373Q103.535 101.373 99.9902 97.5645Q96.4453 93.7559 96.4453 87.5449Q96.4453 87.0176 96.5039 86.0215ZM142.676 94.5176L158.965 91.9395Q161.133 97.0957 164.355 99.2344Q167.578 101.373 173.145 101.373Q178.887 101.373 182.344 98.7949Q184.746 97.0371 184.746 94.5176Q184.746 92.8184 183.516 91.4707Q182.227 90.1816 176.543 88.3066Q161.309 83.2676 157.676 80.3379Q151.992 75.7676 151.992 68.3848Q151.992 61.002 157.5 55.6699Q165.176 48.2285 180.293 48.2285Q192.305 48.2285 198.457 52.623Q204.609 57.0176 206.25 64.5176L190.723 67.2129Q189.492 63.8145 186.738 62.1152Q182.988 59.8301 177.715 59.8301Q172.441 59.8301 170.127 61.5879Q167.813 63.3457 167.813 65.6309Q167.813 67.9746 170.156 69.498Q171.621 70.4355 179.59 72.7793Q191.895 76.3535 196.055 79.8105Q201.914 84.6738 201.914 91.5293Q201.914 100.377 194.473 106.881Q187.031 113.385 173.496 113.385Q160.02 113.385 152.666 108.434Q145.313 103.482 142.676 94.5176ZM275.273 67.3301L258.867 65.9238Q261.68 57.6035 268.682 52.916Q275.684 48.2285 287.227 48.2285Q299.238 48.2285 304.98 53.0625Q310.723 57.8965 310.723 64.8691Q310.723 67.6816 310.225 70.8457Q309.727 74.0098 306.738 87.4863Q304.277 98.6191 304.277 103.072Q304.277 107.057 305.684 111.92L289.336 111.92Q288.34 108.521 288.105 104.889Q284.414 108.99 279.609 111.188Q274.805 113.385 269.941 113.385Q262.207 113.385 257.168 108.316Q252.129 103.248 252.129 95.2793Q252.129 86.373 257.666 81.041Q263.203 75.709 277.441 74.5957Q289.453 73.5996 293.496 72.1934Q294.551 68.6777 294.551 66.5684Q294.551 63.8731 292.383 62.0566Q290.215 60.2402 285.938 60.2402Q281.426 60.2402 278.818 62.0859Q276.211 63.9316 275.273 67.3301ZM346.055 49.6934L330.352 49.6934L317.344 111.92L334.16 111.92L338.262 92.4082Q340.723 80.5137 343.242 75.0352Q345.762 69.5566 350.244 66.2754Q354.727 62.9941 359.063 62.9941Q361.641 62.9941 363.926 63.8145L370.371 50.0449Q366.211 48.2285 362.578 48.2285Q352.324 48.2285 343.535 61.7637L346.055 49.6934ZM124.57 74.0684Q124.57 74.6543 124.512 75.7676L98.2031 75.7676Q99.668 68.0918 103.799 64.166Q107.93 60.2402 113.145 60.2402Q118.359 60.2402 121.465 63.6973Q124.57 67.1543 124.57 74.0684ZM291.27 82.916Q289.746 83.3262 287.227 83.6777Q274.57 85.2012 270.703 88.1309Q267.949 90.2402 267.949 93.8145Q267.949 96.7441 270.059 98.7656Q272.168 100.787 275.625 100.787Q279.434 100.787 282.803 98.9414Q286.172 97.0957 287.842 94.1953Q289.512 91.2949 290.801 85.1426L291.27 82.916Z" />
  </g>
  <path d="M69.1 0L0 1.5" transform="translate(271.5 93)" id="Line" fill="none" fill-rule="evenodd" stroke="#FFFFFF" stroke-width="8" stroke-linecap="square" />
</svg>