<?xml version="1.0" encoding="utf-8"?>
<svg width="70px" height="138px" viewBox="0 0 70 138" version="1.1" xmlns:xlink="http://www.w3.org/1999/xlink" xmlns="http://www.w3.org/2000/svg">
  <defs>
    <linearGradient x1="0" y1="0" x2="1" y2="1" id="gradient_1">
      <stop offset="0" stop-color="#FFFFFF" stop-opacity="0.29803923" />
      <stop offset="1" stop-color="#D3D3D3" stop-opacity="0" />
    </linearGradient>
  </defs>
  <path d="M8.5 39.5L0 0" transform="translate(28.50264 48.007324)" id="New-shape-7-Copy-4" fill="none" fill-rule="evenodd" stroke="#FFFFFF" stroke-opacity="0.101960786" stroke-width="1" />
  <path d="M10 1L0 1" transform="translate(37.00264 86.507324)" id="New-shape-7-Copy-6" fill="none" fill-rule="evenodd" stroke="#FFFFFF" stroke-opacity="0.101960786" stroke-width="1" />
  <path d="M14.5 0L0 12.7" transform="translate(34.50264 62.507324)" id="New-shape-7-Copy-8" fill="none" fill-rule="evenodd" stroke="#FFFFFF" stroke-opacity="0.101960786" stroke-width="1" />
  <path d="M10 1L0 1" transform="translate(59.00264 135.00732)" id="New-shape-7-Copy-7" fill="none" fill-rule="evenodd" stroke="#FFFFFF" stroke-opacity="0.101960786" stroke-width="1" />
  <path d="M11.5 48.5L0 0" transform="translate(47.00264 87.507324)" id="New-shape-7-Copy-5" fill="none" fill-rule="evenodd" stroke="#FFFFFF" stroke-opacity="0.101960786" stroke-width="1" />
  <path d="M0 22.5C0 10.0736 10.0736 0 22.5 0C34.9264 0 45 10.0736 45 22.5C45 34.9264 34.9264 45 22.5 45C10.0736 45 0 34.9264 0 22.5Z" transform="matrix(0.9848078 0.17364804 -0.17364804 0.9848078 7.814163 0)" id="Ellipse-Copy-5" fill="url(#gradient_1)" fill-rule="evenodd" stroke="none" />
  <path d="M0 5C0 2.23858 2.23858 0 5 0C7.76142 0 10 2.23858 10 5C10 7.76142 7.76142 10 5 10C2.23858 10 0 7.76142 0 5Z" transform="matrix(0.9848078 0.17364804 -0.17364804 0.9848078 48.65454 54.12274)" id="Ellipse-Copy-6" fill="url(#gradient_1)" fill-rule="evenodd" stroke="none" />
</svg>