<?xml version="1.0" encoding="utf-8"?>
<svg width="225px" height="170px" viewBox="0 0 225 170" version="1.1" xmlns:xlink="http://www.w3.org/1999/xlink" xmlns="http://www.w3.org/2000/svg">
  <defs>
    <path d="M0 0L26 0L26 26L0 26L0 0Z" id="path_1" />
    <path d="M0 0L24.05 0L24.05 24.05L0 24.05L0 0Z" id="path_2" />
    <clipPath id="mask_1">
      <use xlink:href="#path_1" />
    </clipPath>
    <clipPath id="mask_2">
      <use xlink:href="#path_2" />
    </clipPath>
  </defs>
  <path d="M0 0L96 0L82.4854 115L13.0485 115L0 0Z" transform="translate(66.5 54.5)" id="New-shape" fill="#FFFFFF" fill-opacity="0.26666668" fill-rule="evenodd" stroke="none" />
  <path d="M13.5146 0L83.4175 0L96 31L0 31L13.5146 0Z" transform="translate(66.5 23.5)" id="Rectangle" fill="#000000" fill-opacity="0.047058824" fill-rule="evenodd" stroke="none" />
  <path d="M70 0L0 0L26 75L79 75L70 0Z" transform="translate(0 94.5)" id="New-shape-2" fill="#FFFFFF" fill-opacity="0.26666668" fill-rule="evenodd" stroke="none" />
  <path d="M0 24L18 0L66.5 0L70 24L0 24Z" transform="translate(0.5 69.5)" id="New-shape-3" fill="#000000" fill-opacity="0.06666667" fill-rule="evenodd" stroke="none" />
  <path d="M7 0L75 0L51.2137 56L0 56L7 0Z" transform="translate(149.5 114)" id="New-shape-4" fill="#FFFFFF" fill-opacity="0.26666668" fill-rule="evenodd" stroke="none" />
  <path d="M69 18L55.2 0L1 0L0 18L69 18Z" transform="translate(155.5 95.5)" id="New-shape-5" fill="#000000" fill-opacity="0.06666667" fill-rule="evenodd" stroke="none" />
  <g id="1" fill="#FFFFFF" fill-opacity="0.6313726" transform="translate(103.5 58.5)">
    <path d="M11.2607 7.09091L11.2607 28.9091L6.64773 28.9091L6.64773 11.4695L6.51989 11.4695L1.52344 14.6016L1.52344 10.5107L6.92472 7.09091L11.2607 7.09091Z" />
  </g>
  <g id="3" fill="#FFFFFF" fill-opacity="0.6313726" transform="translate(174.5 116.5)">
    <path d="M8.52202 25.2131Q6.4446 25.2131 4.83807 24.5021Q3.23153 23.7912 2.30824 22.5263Q1.38494 21.2614 1.34801 19.6087L5.37358 19.6087Q5.42898 20.6428 6.31996 21.2798Q7.21094 21.9169 8.53125 21.9169Q9.90696 21.9169 10.7795 21.2106Q11.652 20.5043 11.6428 19.3778Q11.652 18.233 10.7148 17.5082Q9.7777 16.7834 8.17116 16.7834L6.40767 16.7834L6.40767 13.8473L8.17116 13.8473Q9.53764 13.8473 10.3963 13.1594Q11.255 12.4716 11.2457 11.3544Q11.255 10.2834 10.5117 9.61861Q9.76847 8.95383 8.55895 8.95383Q7.33097 8.95383 6.46307 9.60014Q5.59517 10.2464 5.55824 11.3267L1.72656 11.3267Q1.75426 9.69247 2.65909 8.4414Q3.56392 7.19034 5.10121 6.48863Q6.63849 5.78693 8.57742 5.78693Q10.5348 5.78693 12.0028 6.49787Q13.4709 7.20881 14.288 8.4137Q15.1051 9.61861 15.0959 11.1143Q15.1051 12.7024 14.1126 13.7642Q13.12 14.826 11.532 15.1122L11.532 15.2599Q13.6186 15.5185 14.7127 16.7003Q15.8068 17.8821 15.7976 19.6456Q15.8068 21.2614 14.8697 22.517Q13.9325 23.7727 12.2891 24.4929Q10.6456 25.2131 8.52202 25.2131Z" />
  </g>
  <g id="2" fill="#FFFFFF" fill-opacity="0.6313726" transform="translate(32.5 96.5)">
    <path d="M1.53267 24.9545L1.53267 22.0739L8.26349 15.8416Q9.55611 14.6044 10.2301 13.6903Q10.9041 12.7763 10.9041 11.6499Q10.9041 10.4034 10.0778 9.67862Q9.25142 8.95383 8.00497 8.95383Q6.71236 8.95383 5.92294 9.73402Q5.13352 10.5142 5.14276 11.8714L1.34801 11.8714Q1.34801 10.0156 2.18821 8.64915Q3.02841 7.28267 4.538 6.5348Q6.04759 5.78693 8.03267 5.78693Q10.0639 5.78693 11.5735 6.50248Q13.0831 7.21804 13.9233 8.47834Q14.7635 9.73863 14.7635 11.3821Q14.7635 12.4531 14.3388 13.4964Q13.9141 14.5398 12.8477 15.8093Q11.7813 17.0788 9.8331 18.8516L7.07244 21.5568L7.07244 21.6861L15.0128 21.6861L15.0128 24.9545L1.53267 24.9545Z" />
  </g>
  <g id="Group" transform="translate(95.5 0.5)">
    <path d="M0 20C0 8.9543 8.9543 0 20 0C31.0457 0 40 8.9543 40 20C40 31.0457 31.0457 40 20 40C8.9543 40 0 31.0457 0 20Z" id="Ellipse" fill="#FFFFFF" fill-opacity="0.29803923" fill-rule="evenodd" stroke="#FFFFFF" stroke-opacity="0.49803922" stroke-width="1" />
    <g id="Contacts-icon" transform="translate(7 7)">
      <path d="M0 0L26 0L26 26L0 26L0 0Z" id="Background" fill="none" fill-rule="evenodd" stroke="none" />
      <g clip-path="url(#mask_1)">
        <path d="M10.3675 0C7.92797 0.0548439 6.38422 1.04203 5.72 2.5675C5.08828 4.01984 5.22031 5.85 5.67125 7.75125C5.42953 8.03562 5.23047 8.43578 5.28125 9.035L5.28125 9.0675C5.36859 9.70125 5.55953 10.1481 5.80125 10.465C5.91703 10.6153 6.08156 10.6234 6.22375 10.7087C6.34969 11.4177 6.63203 12.0941 6.955 12.6262C6.97125 12.7034 7.00375 12.7745 7.0525 12.8375C7.0525 12.8375 7.10531 12.9045 7.1175 12.9187C7.28 13.1625 7.36125 13.5017 7.36125 13.8775C7.36125 14.2777 7.35516 14.6494 7.3125 15.0637C7.15609 15.4578 6.76609 15.7727 6.1425 16.0875C5.49047 16.4166 4.63734 16.7192 3.77 17.095C2.90266 17.4708 2.02312 17.9217 1.31625 18.6387C0.609375 19.3558 0.103594 20.3491 0.0325 21.645L0 22.1975L20.865 22.1975L20.8325 21.645C20.7614 20.3491 20.2678 19.3578 19.565 18.6387C18.8622 17.9197 17.9786 17.4708 17.1112 17.095C16.2439 16.7192 15.3847 16.4186 14.7225 16.0875C14.0806 15.7666 13.6784 15.4395 13.5037 15.0312C13.4631 14.5397 13.455 14.1517 13.455 13.715C13.455 13.4367 13.5505 13.1848 13.715 12.935C13.7191 12.9289 13.7272 12.9248 13.7312 12.9187C13.7333 12.9147 13.7637 12.8862 13.7637 12.8862C13.8287 12.8192 13.8734 12.7339 13.8937 12.6425C14.2086 12.1022 14.4706 11.4156 14.5925 10.725C14.755 10.6397 14.9378 10.6295 15.0637 10.465C15.3136 10.138 15.4598 9.67281 15.5188 9.035C15.5655 8.48453 15.407 8.08437 15.1613 7.78375C15.4314 6.95094 15.7523 5.61844 15.6488 4.2575C15.5919 3.51 15.3948 2.76453 14.95 2.145C14.5478 1.58437 13.8978 1.20047 13.0813 1.02375C12.5308 0.288438 11.5314 0 10.3837 0L10.3675 0ZM10.3837 1.03999C10.3898 1.03999 10.3939 1.03999 10.4 1.03999C11.438 1.04406 12.1022 1.33656 12.3175 1.70624L12.4475 1.93374L12.7075 1.96624C13.4225 2.06577 13.8145 2.34202 14.105 2.74624C14.3955 3.15046 14.562 3.71515 14.6087 4.33874C14.7042 5.58796 14.3427 7.05249 14.105 7.71874L13.9425 8.15749L14.3487 8.36874C14.3447 8.38296 14.5153 8.55562 14.495 8.93749C14.495 8.94562 14.495 8.94562 14.495 8.95374C14.4462 9.44327 14.3203 9.71952 14.235 9.83124C14.1477 9.94499 14.103 9.92874 14.1212 9.92874L13.6662 9.92874L13.6012 10.3837C13.5119 11.0581 13.1686 11.9072 12.87 12.3337L12.8538 12.3337C12.8233 12.3784 12.8009 12.4312 12.7725 12.48C12.6364 12.6384 12.4312 12.8476 12.1388 13.0975C11.6533 13.5119 11.0094 13.8775 10.4325 13.8775C9.85969 13.8775 9.20969 13.4936 8.71 13.065C8.27734 12.6933 8.01937 12.3744 7.94625 12.285C7.94422 12.2809 7.94828 12.2728 7.94625 12.2687C7.63953 11.8259 7.28812 11.05 7.19875 10.3837L7.15 9.92874L6.7275 9.92874C6.70922 9.92062 6.66047 9.89421 6.61375 9.83124C6.52234 9.7114 6.39234 9.43109 6.32125 8.95374C6.32125 8.94359 6.32125 8.94765 6.32125 8.93749C6.31922 8.92937 6.32328 8.92937 6.32125 8.92124C6.31312 8.52718 6.55687 8.30781 6.51625 8.33624L6.80875 8.12499L6.7275 7.76749C6.24812 5.87234 6.17297 4.15593 6.67875 2.98999C7.18453 1.82812 8.20828 1.09281 10.3837 1.03999L10.3837 1.03999ZM8.40125 14.1537C8.94969 14.558 9.63625 14.9175 10.4325 14.9175C11.2125 14.9175 11.8808 14.5762 12.415 14.1862C12.417 14.5031 12.4272 14.8281 12.4638 15.2262L12.4638 15.2912L12.4963 15.3562C12.5877 15.5959 12.7177 15.7991 12.87 15.99C12.8639 16.0103 12.8578 16.0327 12.8538 16.055C12.8538 16.055 12.7298 16.3962 12.3663 16.77C12.0027 17.1437 11.438 17.5175 10.4325 17.5175C9.4311 17.5175 8.8461 17.1275 8.46625 16.7375C8.08641 16.3475 7.9625 15.99 7.9625 15.99C8.11281 15.795 8.23672 15.5858 8.32 15.34L8.3525 15.2425C8.39719 14.8484 8.40125 14.493 8.40125 14.1537L8.40125 14.1537ZM13.6825 16.705C13.8653 16.8228 14.0542 16.9325 14.2512 17.03C15.0109 17.4078 15.8722 17.7003 16.6887 18.0538C17.5053 18.4072 18.267 18.8073 18.8175 19.37C19.2562 19.8189 19.5203 20.4161 19.6625 21.1575L1.2025 21.1575C1.34469 20.4161 1.60672 19.8189 2.0475 19.37C2.6 18.8073 3.37594 18.4072 4.1925 18.0538C5.00906 17.7003 5.86219 17.4098 6.61375 17.03C6.80062 16.9345 6.99156 16.835 7.16625 16.7213C7.28203 16.9305 7.46078 17.2027 7.71875 17.4688C8.24891 18.0152 9.14672 18.5575 10.4325 18.5575C11.7142 18.5575 12.5937 18.0213 13.1137 17.485C13.3981 17.1925 13.5708 16.9203 13.6825 16.705L13.6825 16.705Z" transform="translate(2.5674973 1.7225037)" id="Shape" fill="#FFFFFF" fill-opacity="0.69803923" fill-rule="evenodd" stroke="none" />
      </g>
    </g>
  </g>
  <g id="Group-Copy" transform="translate(168.5 66)">
    <path d="M0 18.5C0 8.28273 8.28273 0 18.5 0C28.7173 0 37 8.28273 37 18.5C37 28.7173 28.7173 37 18.5 37C8.28273 37 0 28.7173 0 18.5Z" id="Ellipse" fill="#FFFFFF" fill-opacity="0.29803923" fill-rule="evenodd" stroke="#FFFFFF" stroke-opacity="0.49803922" stroke-width="1" />
    <g id="Contacts-icon" transform="translate(6.4750004 6.475006)">
      <path d="M0 0L24.05 0L24.05 24.05L0 24.05L0 0Z" id="Background" fill="none" fill-rule="evenodd" stroke="none" />
      <g clip-path="url(#mask_2)">
        <path d="M9.58994 0C7.33337 0.0507306 5.9054 0.963879 5.291 2.37494C4.70666 3.71836 4.82879 5.41125 5.24591 7.16991C5.02232 7.43295 4.83818 7.8031 4.88516 8.35738L4.88516 8.38744C4.96595 8.97366 5.14257 9.38702 5.36616 9.68013C5.47325 9.81916 5.62545 9.82668 5.75697 9.90559C5.87346 10.5613 6.13463 11.187 6.43338 11.6793C6.44841 11.7507 6.47847 11.8164 6.52356 11.8747C6.52356 11.8747 6.57241 11.9367 6.58369 11.9498C6.734 12.1753 6.80916 12.4891 6.80916 12.8367C6.80916 13.2068 6.80352 13.5507 6.76406 13.934C6.61939 14.2985 6.25864 14.5897 5.68181 14.8809C5.07868 15.1853 4.28954 15.4653 3.48725 15.8129C2.68496 16.1605 1.87139 16.5776 1.21753 17.2408C0.563672 17.9041 0.0958245 18.8229 0.0300625 20.0216L0 20.5327L19.3001 20.5327L19.2701 20.0216C19.2043 18.8229 18.7477 17.906 18.0976 17.2408C17.4475 16.5757 16.6302 16.1605 15.8279 15.8129C15.0256 15.4653 14.2308 15.1872 13.6183 14.8809C13.0246 14.5841 12.6526 14.2816 12.491 13.9039C12.4534 13.4492 12.4459 13.0903 12.4459 12.6864C12.4459 12.429 12.5342 12.196 12.6864 11.9649C12.6901 11.9592 12.6976 11.9555 12.7014 11.9498C12.7033 11.9461 12.7315 11.9198 12.7315 11.9198C12.7916 11.8578 12.8329 11.7789 12.8517 11.6943C13.143 11.1945 13.3853 10.5595 13.4981 9.92063C13.6484 9.84171 13.8175 9.83232 13.934 9.68013C14.1651 9.37762 14.3004 8.94735 14.3548 8.35738C14.3981 7.84819 14.2515 7.47805 14.0242 7.19997C14.2741 6.42962 14.5709 5.19706 14.4751 3.93819C14.4225 3.24675 14.2402 2.55719 13.8288 1.98413C13.4567 1.46555 12.8555 1.11043 12.1002 0.946969C11.591 0.266805 10.6666 0 9.60497 0L9.58994 0ZM9.60497 0.96199C9.61061 0.96199 9.61436 0.96199 9.62 0.96199C10.5801 0.965748 11.1945 1.23631 11.3937 1.57827L11.5139 1.78871L11.7544 1.81877C12.4158 1.91084 12.7784 2.16637 13.0471 2.54027C13.3158 2.91417 13.4699 3.43651 13.5131 4.01333C13.6014 5.16886 13.267 6.52355 13.0471 7.13983L12.8968 7.54568L13.2726 7.74108C13.2688 7.75424 13.4267 7.91394 13.4079 8.26718C13.4079 8.27469 13.4079 8.27469 13.4079 8.28221C13.3628 8.73503 13.2463 8.99056 13.1674 9.0939C13.0866 9.19912 13.0452 9.18408 13.0622 9.18408L12.6413 9.18408L12.5812 9.60496C12.4985 10.2288 12.181 11.0141 11.9048 11.4087L11.8897 11.4087C11.8615 11.45 11.8409 11.4989 11.8146 11.544C11.6887 11.6905 11.4989 11.8841 11.2283 12.1152C10.7793 12.4985 10.1837 12.8367 9.65006 12.8367C9.12021 12.8367 8.51896 12.4816 8.05675 12.0851C7.65654 11.7413 7.41792 11.4463 7.35028 11.3636C7.3484 11.3599 7.35216 11.3523 7.35028 11.3486C7.06657 10.939 6.74152 10.2212 6.65884 9.60496L6.61375 9.18408L6.22294 9.18408C6.20603 9.17657 6.16093 9.15214 6.11772 9.0939C6.03317 8.98304 5.91292 8.72375 5.84716 8.28221C5.84716 8.27281 5.84716 8.27657 5.84716 8.26718C5.84528 8.25966 5.84904 8.25966 5.84716 8.25215C5.83964 7.88764 6.06511 7.68472 6.02753 7.71102L6.29809 7.51562L6.22294 7.18493C5.77952 5.43191 5.71 3.84423 6.17784 2.76574C6.64569 1.69101 7.59266 1.01084 9.60497 0.96199L9.60497 0.96199ZM7.77116 13.0922C8.27846 13.4661 8.91353 13.7987 9.65006 13.7987C10.3716 13.7987 10.9897 13.483 11.4839 13.1223C11.4858 13.4154 11.4951 13.716 11.529 14.0843L11.529 14.1444L11.559 14.2045C11.6436 14.4262 11.7638 14.6141 11.9048 14.7908C11.8991 14.8095 11.8935 14.8302 11.8897 14.8509C11.8897 14.8509 11.7751 15.1665 11.4388 15.5123C11.1025 15.858 10.5801 16.2037 9.65006 16.2037C8.72376 16.2037 8.18264 15.8429 7.83128 15.4822C7.47993 15.1214 7.36531 14.7908 7.36531 14.7908C7.50435 14.6104 7.61897 14.4169 7.696 14.1895L7.72606 14.0993C7.7674 13.7348 7.77116 13.406 7.77116 13.0922L7.77116 13.0922ZM12.6563 15.4521C12.8254 15.5611 13.0002 15.6626 13.1824 15.7527C13.8851 16.1022 14.6818 16.3728 15.4371 16.6997C16.1924 17.0266 16.897 17.3968 17.4062 17.9172C17.812 18.3325 18.0563 18.8849 18.1878 19.5707L1.11231 19.5707C1.24384 18.8849 1.48621 18.3325 1.89394 17.9172C2.405 17.3968 3.12274 17.0266 3.87806 16.6997C4.63338 16.3728 5.42252 16.1041 6.11772 15.7527C6.29058 15.6644 6.4672 15.5724 6.62878 15.4671C6.73588 15.6607 6.90122 15.9124 7.13984 16.1586C7.63024 16.664 8.46071 17.1657 9.65006 17.1657C10.8357 17.1657 11.6492 16.6696 12.1302 16.1736C12.3933 15.9031 12.553 15.6513 12.6563 15.4521L12.6563 15.4521Z" transform="translate(2.3749352 1.5933228)" id="Shape" fill="#FFFFFF" fill-opacity="0.69803923" fill-rule="evenodd" stroke="none" />
      </g>
    </g>
  </g>
  <g id="Group-Copy-2" transform="translate(21.5 44.5)">
    <path d="M0 18.5C0 8.28273 8.28273 0 18.5 0C28.7173 0 37 8.28273 37 18.5C37 28.7173 28.7173 37 18.5 37C8.28273 37 0 28.7173 0 18.5Z" id="Ellipse" fill="#FFFFFF" fill-opacity="0.29803923" fill-rule="evenodd" stroke="#FFFFFF" stroke-opacity="0.49803922" stroke-width="1" />
    <g id="Contacts-icon" transform="translate(6.475006 6.475006)">
      <path d="M0 0L24.05 0L24.05 24.05L0 24.05L0 0Z" id="Background" fill="none" fill-rule="evenodd" stroke="none" />
      <g clip-path="url(#mask_2)">
        <path d="M9.58994 0C7.33337 0.0507306 5.9054 0.963879 5.291 2.37494C4.70666 3.71836 4.82879 5.41125 5.24591 7.16991C5.02232 7.43295 4.83818 7.8031 4.88516 8.35738L4.88516 8.38744C4.96595 8.97366 5.14257 9.38702 5.36616 9.68013C5.47325 9.81916 5.62545 9.82668 5.75697 9.90559C5.87346 10.5613 6.13463 11.187 6.43338 11.6793C6.44841 11.7507 6.47847 11.8164 6.52356 11.8747C6.52356 11.8747 6.57241 11.9367 6.58369 11.9498C6.734 12.1753 6.80916 12.4891 6.80916 12.8367C6.80916 13.2068 6.80352 13.5507 6.76406 13.934C6.61939 14.2985 6.25864 14.5897 5.68181 14.8809C5.07868 15.1853 4.28954 15.4653 3.48725 15.8129C2.68496 16.1605 1.87139 16.5776 1.21753 17.2408C0.563672 17.9041 0.0958245 18.8229 0.0300625 20.0216L0 20.5327L19.3001 20.5327L19.2701 20.0216C19.2043 18.8229 18.7477 17.906 18.0976 17.2408C17.4475 16.5757 16.6302 16.1605 15.8279 15.8129C15.0256 15.4653 14.2308 15.1872 13.6183 14.8809C13.0246 14.5841 12.6526 14.2816 12.491 13.9039C12.4534 13.4492 12.4459 13.0903 12.4459 12.6864C12.4459 12.429 12.5342 12.196 12.6864 11.9649C12.6901 11.9592 12.6976 11.9555 12.7014 11.9498C12.7033 11.9461 12.7315 11.9198 12.7315 11.9198C12.7916 11.8578 12.8329 11.7789 12.8517 11.6943C13.143 11.1945 13.3853 10.5595 13.4981 9.92063C13.6484 9.84171 13.8175 9.83232 13.934 9.68013C14.1651 9.37762 14.3004 8.94735 14.3548 8.35738C14.3981 7.84819 14.2515 7.47805 14.0242 7.19997C14.2741 6.42962 14.5709 5.19706 14.4751 3.93819C14.4225 3.24675 14.2402 2.55719 13.8288 1.98413C13.4567 1.46555 12.8555 1.11043 12.1002 0.946969C11.591 0.266805 10.6666 0 9.60497 0L9.58994 0ZM9.60497 0.96199C9.61061 0.96199 9.61436 0.96199 9.62 0.96199C10.5801 0.965748 11.1945 1.23631 11.3937 1.57827L11.5139 1.78871L11.7544 1.81877C12.4158 1.91084 12.7784 2.16637 13.0471 2.54027C13.3158 2.91417 13.4699 3.43651 13.5131 4.01333C13.6014 5.16886 13.267 6.52355 13.0471 7.13983L12.8968 7.54568L13.2726 7.74108C13.2688 7.75424 13.4267 7.91394 13.4079 8.26718C13.4079 8.27469 13.4079 8.27469 13.4079 8.28221C13.3628 8.73503 13.2463 8.99056 13.1674 9.0939C13.0866 9.19912 13.0452 9.18408 13.0622 9.18408L12.6413 9.18408L12.5812 9.60496C12.4985 10.2288 12.181 11.0141 11.9048 11.4087L11.8897 11.4087C11.8615 11.45 11.8409 11.4989 11.8146 11.544C11.6887 11.6905 11.4989 11.8841 11.2283 12.1152C10.7793 12.4985 10.1837 12.8367 9.65006 12.8367C9.12021 12.8367 8.51896 12.4816 8.05675 12.0851C7.65654 11.7413 7.41792 11.4463 7.35028 11.3636C7.3484 11.3599 7.35216 11.3523 7.35028 11.3486C7.06657 10.939 6.74152 10.2212 6.65884 9.60496L6.61375 9.18408L6.22294 9.18408C6.20603 9.17657 6.16093 9.15214 6.11772 9.0939C6.03317 8.98304 5.91292 8.72375 5.84716 8.28221C5.84716 8.27281 5.84716 8.27657 5.84716 8.26718C5.84528 8.25966 5.84904 8.25966 5.84716 8.25215C5.83964 7.88764 6.06511 7.68472 6.02753 7.71102L6.29809 7.51562L6.22294 7.18493C5.77952 5.43191 5.71 3.84423 6.17784 2.76574C6.64569 1.69101 7.59266 1.01084 9.60497 0.96199L9.60497 0.96199ZM7.77116 13.0922C8.27846 13.4661 8.91353 13.7987 9.65006 13.7987C10.3716 13.7987 10.9897 13.483 11.4839 13.1223C11.4858 13.4154 11.4951 13.716 11.529 14.0843L11.529 14.1444L11.559 14.2045C11.6436 14.4262 11.7638 14.6141 11.9048 14.7908C11.8991 14.8095 11.8935 14.8302 11.8897 14.8509C11.8897 14.8509 11.7751 15.1665 11.4388 15.5123C11.1025 15.858 10.5801 16.2037 9.65006 16.2037C8.72376 16.2037 8.18264 15.8429 7.83128 15.4822C7.47993 15.1214 7.36531 14.7908 7.36531 14.7908C7.50435 14.6104 7.61897 14.4169 7.696 14.1895L7.72606 14.0993C7.7674 13.7348 7.77116 13.406 7.77116 13.0922L7.77116 13.0922ZM12.6563 15.4521C12.8254 15.5611 13.0002 15.6626 13.1824 15.7527C13.8851 16.1022 14.6818 16.3728 15.4371 16.6997C16.1924 17.0266 16.897 17.3968 17.4062 17.9172C17.812 18.3325 18.0563 18.8849 18.1878 19.5707L1.11231 19.5707C1.24384 18.8849 1.48621 18.3325 1.89394 17.9172C2.405 17.3968 3.12274 17.0266 3.87806 16.6997C4.63338 16.3728 5.42252 16.1041 6.11772 15.7527C6.29058 15.6644 6.4672 15.5724 6.62878 15.4671C6.73588 15.6607 6.90122 15.9124 7.13984 16.1586C7.63024 16.664 8.46071 17.1657 9.65006 17.1657C10.8357 17.1657 11.6492 16.6696 12.1302 16.1736C12.3933 15.9031 12.553 15.6513 12.6563 15.4521L12.6563 15.4521Z" transform="translate(2.3749352 1.5933228)" id="Shape" fill="#FFFFFF" fill-opacity="0.69803923" fill-rule="evenodd" stroke="none" />
      </g>
    </g>
  </g>
</svg>