<?xml version="1.0" encoding="utf-8"?>
<svg width="179px" height="130px" viewBox="0 0 179 130" version="1.1" xmlns:xlink="http://www.w3.org/1999/xlink" xmlns="http://www.w3.org/2000/svg">
  <defs>
    <linearGradient x1="0" y1="0" x2="1" y2="1" id="gradient_1">
      <stop offset="0" stop-color="#084553" />
      <stop offset="1" stop-color="#139EBE" />
    </linearGradient>
    <linearGradient x1="0" y1="0.5" x2="1.2179487" y2="0.4794398" id="gradient_2">
      <stop offset="0" stop-color="#14A9CB" />
      <stop offset="1" stop-color="#D3D3D3" stop-opacity="0" />
    </linearGradient>
    <filter filterUnits="userSpaceOnUse" color-interpolation-filters="sRGB" id="filter_1">
      <feFlood flood-opacity="0" result="BackgroundImageFix" />
      <feBlend mode="normal" in="SourceGraphic" in2="BackgroundImageFix" result="shape" />
      <feGaussianBlur stdDeviation="13" result="effect0_gaussianBlur" />
    </filter>
    <path d="M0 0L128.861 0L128.861 130L0 130L0 0Z" id="path_1" />
    <path d="M0 0L59.9791 0L59.9791 60.5091L0 60.5091L0 0Z" id="path_2" />
    <clipPath id="mask_1">
      <use xlink:href="#path_1" />
    </clipPath>
    <clipPath id="mask_2">
      <use xlink:href="#path_2" />
    </clipPath>
  </defs>
  <g id="Group-3">
    <g id="EmojioneV1SmilingFaceWithSunglasses" transform="translate(50.138733 0)">
      <path d="M0 0L128.861 0L128.861 130L0 130L0 0Z" id="Background" fill="none" fill-rule="evenodd" stroke="none" />
      <g clip-path="url(#mask_1)">
        <path d="M128.104 64.6181C128.104 100.311 99.4326 129.24 64.0521 129.24C28.6716 129.24 0 100.311 0 64.6181C0 28.9291 28.6716 0 64.0521 0C99.4326 0 128.104 28.927 128.104 64.6181" transform="translate(0 0.7596741)" id="Shape" fill="url(#gradient_1)" fill-rule="evenodd" stroke="none" />
      </g>
    </g>
    <path d="M30.4581 1.28544e-06C12.8753 7.20133 0 30.476 0 58.0759C0 85.6759 12.8753 108.951 30.4581 116.152L30.4581 1.28544e-06Z" transform="translate(59.510437 6.6168213)" id="Ellipse-Difference" fill="url(#gradient_2)" fill-rule="evenodd" stroke="none" filter="url(#filter_1)" />
    <g id="EmojioneV1ThumbsUp" transform="matrix(-1 0 0 1 59.979065 64.76367)">
      <path d="M0 0L59.9791 0L59.9791 60.5091L0 60.5091L0 0Z" id="Background" fill="none" fill-rule="evenodd" stroke="none" />
      <g clip-path="url(#mask_2)">
        <g id="Group" transform="translate(4.068115 0.34509277)">
          <path d="M12.0232 59.1987C16.2442 60.3474 20.6761 60.3474 26.1932 59.1524C25.4594 58.5922 24.8015 57.9374 24.2364 57.2047C22.8006 55.3743 22.9965 52.8509 24.6263 50.9827C23.7463 49.608 23.4642 47.9317 24.0049 46.3651C24.1249 46.0276 24.2861 45.7014 24.4763 45.3922C24.8332 44.7596 25.2893 44.1893 25.8268 43.7036C25.7199 43.6498 25.5981 43.6034 25.4969 43.5495C25.3704 43.4786 25.2607 43.386 25.1408 43.3113C21.7735 47.6528 16.7671 50.6319 10.952 51.3382L10.7327 51.3552C9.83111 51.3552 9.10949 50.649 9.05138 49.7177C8.98344 48.8038 9.642 47.9984 10.5443 47.892C15.754 47.2605 20.1091 44.5782 22.8934 40.6205C22.4708 39.538 22.4155 38.3439 22.8213 37.2027C23.0387 36.5806 23.4098 36.0076 23.8718 35.4971C23.9356 35.4092 23.9899 35.3184 24.0621 35.2314C22.4698 34.4826 21.6929 33.245 21.3284 32.1379C20.4971 29.6183 21.5664 27.2244 24.228 25.4819C24.4754 25.2682 24.7284 25.0555 24.9871 24.8598C23.1643 24.9572 21.4577 24.5979 20.0585 23.6354L18.8195 22.7874L20.3527 21.6301C20.558 21.4628 20.751 21.3049 21.0069 21.1829C23.6263 19.9292 25.048 17.8483 25.3563 14.8219C25.8661 9.78546 24.9964 5.95447 22.6226 2.76262C21.9272 1.82662 20.796 0.923709 19.5271 0.288364C19.1429 0.0973818 18.7746 0 18.4062 0C17.5965 0 16.7203 0.443418 15.5666 1.43047C14.6669 2.18967 14.6604 3.01316 14.9856 4.576C15.0887 5.06669 15.2592 5.59236 15.5169 6.23149C17.0436 9.94618 16.4035 13.6533 13.6651 16.9548C11.4609 19.621 9.59963 21.4372 7.63063 22.846C1.17632 27.4674 -1.15068 33.4426 0.524984 41.1065C0.931717 42.9747 1.27753 44.8514 1.62148 46.7263L1.91481 48.326C2.98975 54.081 6.29797 57.6368 12.026 59.1996" id="Shape" fill="#FFFFFF" fill-opacity="0.9490196" fill-rule="evenodd" stroke="none" />
          <path d="M17.2321 3.60662e-06C17.0484 3.60662e-06 16.8638 0.000948542 16.6735 0.0198581C15.2097 0.141821 13.7514 0.485022 12.5678 0.993677C9.51822 2.30124 5.95134 3.88771 2.59158 5.70204C0.537297 6.81484 -0.301473 7.9891 0.0958877 9.18793C0.315185 9.84881 0.893421 10.7215 3.39942 10.7215C3.72931 10.7215 4.05732 10.7092 4.38345 10.6846C8.22961 10.3924 13.1554 10.5844 15.5967 9.85164C18.0399 9.12175 18.3661 8.55259 18.6538 8.43629C20.9077 7.48138 22.2282 5.26335 21.7821 3.32989C21.3266 1.35011 19.5835 0 17.2321 0M21.6527 10.8822C21.5213 10.8585 21.3879 10.8474 21.2544 10.8491C20.9995 10.8491 20.8149 10.8907 20.7268 10.9275C16.2996 12.8761 11.3082 13.9331 5.02168 14.2574C3.51658 14.334 1.88215 15.2643 1.45573 16.293C1.06025 17.2479 1.52134 18.2104 2.63938 18.7625C3.29821 19.0925 4.11637 19.3601 5.0048 19.535C6.0282 19.7401 7.60546 19.8479 9.56509 19.8479C13.8358 19.8479 18.7869 19.3345 21.0858 18.6529C23.6433 17.888 25.1306 16.3459 25.1625 14.4229C25.1878 12.6653 23.7764 11.2424 21.6527 10.8822M22.4962 23.0757C17.1375 23.9909 11.7768 24.1034 6.59521 23.3971C6.4269 23.3738 6.25715 23.3628 6.08726 23.364C4.64589 23.364 3.17734 24.1667 2.67127 25.2275C2.15207 26.3271 2.71532 27.6271 3.9805 28.2416C7.41805 29.8962 11.3045 30.0219 15.4196 30.1543L16.16 30.1751C17.1534 30.2129 18.1918 30.1666 18.949 30.1335L19.5685 30.1127C21.962 29.5199 23.7905 28.1282 24.3546 26.4614C24.7239 25.3779 24.5243 24.3171 23.7858 23.3896C23.3884 22.896 23.1138 22.9622 22.4962 23.0757M2.94483 31.2652C2.44345 32.0084 2.39378 32.8498 2.8558 33.4587C3.48558 34.3115 4.12473 34.9298 4.76764 35.3146C7.48262 36.9493 10.7187 37.9089 14.6698 38.2559C16.6491 38.4393 18.3623 37.8503 19.6424 36.538C20.6312 35.5188 20.9985 34.5289 20.7792 33.4133C13.5752 34.0694 7.98588 33.3802 2.94483 31.2652" transform="translate(24.31482 21.92035)" id="Shape" fill="#FFFFFF" fill-opacity="0.9490196" fill-rule="evenodd" stroke="none" />
        </g>
      </g>
    </g>
    <path d="M2.82263 0L52.9819 0C55.6437 0 56.6403 6.66047 55.0276 10.6559C40.3515 47.2184 15.4551 47.2184 0.774946 10.6559C-0.835819 6.6625 0.168895 0 2.82263 0M63.7156 0.0812683L113.657 0.0812683C116.303 0.0812683 117.302 6.71736 115.691 10.6925C101.081 47.0966 76.3037 47.0966 61.682 10.6925C60.0833 6.71736 61.0759 0.0812722 63.7156 0.0812722" transform="translate(56.230408 35.927277)" id="Shape" fill="#073A46" fill-rule="evenodd" stroke="none" />
    <path d="M56.952 4.355C56.952 6.76609 55.0755 8.70797 52.7781 8.70797L40.1598 8.70797C37.8705 8.70797 35.998 6.76406 35.998 4.355C35.998 1.95203 37.8705 0 40.1598 0L52.7781 0C55.0755 0 56.952 1.95203 56.952 4.355M100.926 5.99825C101.812 7.25154 99.5487 10.5564 95.8782 13.3859L75.7799 28.8701C72.1093 31.6915 68.4267 32.9733 67.5388 31.7139C66.6569 30.4748 68.914 27.1619 72.5885 24.3404L92.6869 8.85216C96.3574 6.03075 100.044 4.74903 100.926 5.99825M81.5162 0.282343C81.9571 0.905935 80.8195 2.56547 78.9853 3.97719L68.9422 11.7203C67.0978 13.13 65.2595 13.7719 64.8146 13.1463C64.3716 12.5267 65.4991 10.8631 67.3435 9.45141L77.3866 1.71234C79.2229 0.298596 81.0752 -0.343279 81.5162 0.282343M29.8106 3.03062C30.5898 4.13969 28.5844 7.07281 25.3367 9.58344L7.48341 23.3309C4.22362 25.8334 0.951752 26.9709 0.172546 25.8578C-0.618742 24.7569 1.38666 21.8197 4.65047 19.305L22.4957 5.56156C25.7495 3.05297 29.0294 1.91953 29.8106 3.03062M27.3985 17.4241C27.781 17.9786 26.7884 19.4431 25.1595 20.7005L16.2459 27.5722C14.611 28.8255 12.968 29.3942 12.5835 28.8417C12.1888 28.2913 13.1895 26.8146 14.8184 25.5613L23.742 18.6936C25.3649 17.4363 27.0119 16.8695 27.3985 17.4241" transform="translate(68.083984 37.550262)" id="Shape-2" fill="#265B67" fill-rule="evenodd" stroke="none" />
    <path d="M52.7718 7.74861e-06L49.0227 7.74861e-06C48.8314 7.74861e-06 48.6986 0.0731313 48.5234 0.101569C48.3341 0.130006 48.1509 0.138134 47.9636 0.217348C47.6579 0.335189 47.3801 0.516499 47.1482 0.749538C47.1019 0.792194 47.0375 0.800322 46.9911 0.853129C37.9568 9.73579 26.1196 11.763 14.8463 5.91298C8.7858 2.77266 9.29118 0.00203788 2.81187 0.00203788C0.162163 0.00203788 -0.828459 3.10376 0.770227 4.95829C15.392 21.9741 40.1877 21.9741 54.8054 4.95829C56.404 3.10172 55.4235 0 52.7718 0" transform="translate(86.68848 87.927246)" id="Shape-3" fill="#FFFFFF" fill-opacity="0.8509804" fill-rule="evenodd" stroke="none" />
  </g>
</svg>